<svg width="39" height="39" viewBox="0 0 39 39" fill="none" xmlns="http://www.w3.org/2000/svg">
<g clip-path="url(#clip0_200_15680)">
<path d="M36.425 12.0352H27.114V2.58398C27.114 1.16016 25.9611 0 24.5331 0H14.3442C12.922 0 11.7633 1.1543 11.7633 2.58398V7.66406H15.737V3.97852H23.1344V23.1504H19.8688V27.1289H27.1081V16.0137H35.0263V23.1504H31.0643V27.1289H36.4192C37.8413 27.1289 39.0001 25.9746 39.0001 24.5449V14.6191C39.0001 13.1953 37.8472 12.0352 36.425 12.0352Z" fill="#247CFF"/>
<path d="M23.1402 35.0215H15.7428V16.0137H19.0669V12.0352H11.7691V23.1445H3.97374V16.0137H7.8714V12.0352H2.58088C1.15291 12.0352 0 13.1953 0 14.6192V24.5449C0 25.9688 1.15291 27.1289 2.58088 27.1289H11.7691V36.4219C11.7691 37.8457 12.922 39.0059 14.3499 39.0059H24.5389C25.961 39.0059 27.1198 37.8516 27.1198 36.4219V31.0781H23.146V35.0215H23.1402Z" fill="#247CFF"/>
</g>
<defs>
<clipPath id="clip0_200_15680">
<rect width="38.0217" height="38.0217" fill="white" transform="scale(1.02573)"/>
</clipPath>
</defs>
</svg>
