<svg width="269" height="73" viewBox="0 0 269 73" fill="none" xmlns="http://www.w3.org/2000/svg">
<g clip-path="url(#clip0_603_10247)">
<path d="M67.4638 22.2906H50.2185V4.78587C50.2185 2.14876 48.0832 0 45.4384 0H26.5672C23.9333 0 21.7871 2.1379 21.7871 4.78587V14.1948H29.147V7.36872H42.8478V42.8775H36.7995V50.2462H50.2077V29.6593H64.8732V42.8775H57.535V50.2462H67.453C70.0869 50.2462 72.2331 48.1083 72.2331 45.4603V27.0765C72.2331 24.4394 70.0977 22.2906 67.4638 22.2906Z" fill="#247CFF"/>
<path d="M42.8585 64.8642H29.1577V29.6593H35.3144V22.2906H21.7978V42.8666H7.35987V29.6593H14.5788V22.2906H4.78012C2.13534 22.2906 0 24.4394 0 27.0765V45.4603C0 48.0974 2.13534 50.2462 4.78012 50.2462H21.7978V67.4579C21.7978 70.095 23.9331 72.2438 26.5779 72.2438H45.4491C48.083 72.2438 50.2292 70.1059 50.2292 67.4579V57.5606H42.8693V64.8642H42.8585Z" fill="#247CFF"/>
</g>
<path d="M99.1811 20.1048C102.712 20.1048 105.81 20.7951 108.475 22.1755C111.172 23.556 113.242 25.5303 114.687 28.0986C116.164 30.6348 116.902 33.5883 116.902 36.9592C116.902 40.3301 116.164 43.2836 114.687 45.8198C113.242 48.3238 111.172 50.2661 108.475 51.6465C105.81 53.027 102.712 53.7172 99.1811 53.7172H87.4312V20.1048H99.1811ZM98.9403 47.9867C102.472 47.9867 105.201 47.0236 107.127 45.0974C109.053 43.1712 110.016 40.4585 110.016 36.9592C110.016 33.4599 109.053 30.7311 107.127 28.7728C105.201 26.7824 102.472 25.7872 98.9403 25.7872H94.1729V47.9867H98.9403Z" fill="#242424"/>
<path d="M133.795 54.1506C131.227 54.1506 128.915 53.5888 126.861 52.4652C124.806 51.3095 123.185 49.6882 121.997 47.6015C120.841 45.5148 120.263 43.107 120.263 40.3782C120.263 37.6494 120.857 35.2416 122.045 33.1549C123.265 31.0682 124.918 29.463 127.005 28.3394C129.092 27.1837 131.419 26.6058 133.988 26.6058C136.556 26.6058 138.883 27.1837 140.97 28.3394C143.057 29.463 144.694 31.0682 145.882 33.1549C147.102 35.2416 147.712 37.6494 147.712 40.3782C147.712 43.107 147.086 45.5148 145.834 47.6015C144.614 49.6882 142.944 51.3095 140.826 52.4652C138.739 53.5888 136.395 54.1506 133.795 54.1506ZM133.795 48.2757C135.015 48.2757 136.155 47.9867 137.214 47.4089C138.306 46.7989 139.172 45.9 139.814 44.7122C140.456 43.5244 140.777 42.0797 140.777 40.3782C140.777 37.842 140.103 35.8998 138.755 34.5514C137.439 33.171 135.817 32.4807 133.891 32.4807C131.965 32.4807 130.344 33.171 129.028 34.5514C127.743 35.8998 127.101 37.842 127.101 40.3782C127.101 42.9144 127.727 44.8727 128.979 46.2532C130.264 47.6015 131.869 48.2757 133.795 48.2757Z" fill="#242424"/>
<path d="M150.924 40.3782C150.924 37.6173 151.485 35.2095 152.609 33.1549C153.733 31.0682 155.29 29.463 157.28 28.3394C159.271 27.1837 161.55 26.6058 164.118 26.6058C167.425 26.6058 170.154 27.4405 172.305 29.1099C174.488 30.7471 175.948 33.0586 176.687 36.0442H169.415C169.03 34.8885 168.372 33.9896 167.441 33.3475C166.542 32.6734 165.418 32.3363 164.07 32.3363C162.144 32.3363 160.619 33.0426 159.495 34.4551C158.372 35.8356 157.81 37.8099 157.81 40.3782C157.81 42.9144 158.372 44.8888 159.495 46.3013C160.619 47.6818 162.144 48.372 164.07 48.372C166.799 48.372 168.581 47.1521 169.415 44.7122H176.687C175.948 47.6015 174.488 49.8969 172.305 51.5984C170.121 53.2999 167.393 54.1506 164.118 54.1506C161.55 54.1506 159.271 53.5888 157.28 52.4652C155.29 51.3095 153.733 49.7043 152.609 47.6497C151.485 45.5629 150.924 43.1391 150.924 40.3782Z" fill="#242424"/>
<path d="M179.892 40.2819C179.892 37.5852 180.422 35.1935 181.481 33.1068C182.573 31.02 184.049 29.4149 185.911 28.2912C187.773 27.1676 189.844 26.6058 192.123 26.6058C193.857 26.6058 195.51 26.991 197.083 27.7615C198.657 28.4999 199.909 29.4951 200.84 30.7471V18.0823H207.678V53.7172H200.84V49.7685C200.005 51.0847 198.833 52.1441 197.324 52.9467C195.815 53.7493 194.066 54.1506 192.075 54.1506C189.828 54.1506 187.773 53.5728 185.911 52.417C184.049 51.2613 182.573 49.6401 181.481 47.5533C180.422 45.4345 179.892 43.0107 179.892 40.2819ZM200.888 40.3782C200.888 38.7409 200.567 37.3444 199.925 36.1887C199.283 35.0009 198.416 34.102 197.324 33.492C196.233 32.8499 195.061 32.5289 193.809 32.5289C192.557 32.5289 191.401 32.8339 190.342 33.4438C189.282 34.0538 188.415 34.9527 187.741 36.1405C187.099 37.2963 186.778 38.6767 186.778 40.2819C186.778 41.8871 187.099 43.2996 187.741 44.5196C188.415 45.7074 189.282 46.6223 190.342 47.2644C191.433 47.9065 192.589 48.2275 193.809 48.2275C195.061 48.2275 196.233 47.9225 197.324 47.3126C198.416 46.6705 199.283 45.7716 199.925 44.6159C200.567 43.428 200.888 42.0155 200.888 40.3782Z" fill="#242424"/>
<path d="M226.108 54.1506C223.54 54.1506 221.229 53.5888 219.174 52.4652C217.119 51.3095 215.498 49.6882 214.31 47.6015C213.155 45.5148 212.577 43.107 212.577 40.3782C212.577 37.6494 213.171 35.2416 214.358 33.1549C215.578 31.0682 217.232 29.463 219.318 28.3394C221.405 27.1837 223.733 26.6058 226.301 26.6058C228.869 26.6058 231.197 27.1837 233.283 28.3394C235.37 29.463 237.007 31.0682 238.195 33.1549C239.415 35.2416 240.025 37.6494 240.025 40.3782C240.025 43.107 239.399 45.5148 238.147 47.6015C236.927 49.6882 235.258 51.3095 233.139 52.4652C231.052 53.5888 228.709 54.1506 226.108 54.1506ZM226.108 48.2757C227.328 48.2757 228.468 47.9867 229.527 47.4089C230.619 46.7989 231.486 45.9 232.128 44.7122C232.77 43.5244 233.091 42.0797 233.091 40.3782C233.091 37.842 232.417 35.8998 231.068 34.5514C229.752 33.171 228.131 32.4807 226.205 32.4807C224.278 32.4807 222.657 33.171 221.341 34.5514C220.057 35.8998 219.415 37.842 219.415 40.3782C219.415 42.9144 220.041 44.8727 221.293 46.2532C222.577 47.6015 224.182 48.2757 226.108 48.2757Z" fill="#242424"/>
<path d="M243.237 40.3782C243.237 37.6173 243.799 35.2095 244.922 33.1549C246.046 31.0682 247.603 29.463 249.593 28.3394C251.584 27.1837 253.863 26.6058 256.431 26.6058C259.738 26.6058 262.467 27.4405 264.618 29.1099C266.801 30.7471 268.262 33.0586 269 36.0442H261.729C261.343 34.8885 260.685 33.9896 259.754 33.3475C258.855 32.6734 257.732 32.3363 256.383 32.3363C254.457 32.3363 252.932 33.0426 251.809 34.4551C250.685 35.8356 250.123 37.8099 250.123 40.3782C250.123 42.9144 250.685 44.8888 251.809 46.3013C252.932 47.6818 254.457 48.372 256.383 48.372C259.112 48.372 260.894 47.1521 261.729 44.7122H269C268.262 47.6015 266.801 49.8969 264.618 51.5984C262.435 53.2999 259.706 54.1506 256.431 54.1506C253.863 54.1506 251.584 53.5888 249.593 52.4652C247.603 51.3095 246.046 49.7043 244.922 47.6497C243.799 45.5629 243.237 43.1391 243.237 40.3782Z" fill="#242424"/>
<defs>
<clipPath id="clip0_603_10247">
<rect width="72.0412" height="72.0412" fill="white" transform="scale(1.00266)"/>
</clipPath>
</defs>
</svg>
