<svg width="96" height="19" viewBox="0 0 96 19" fill="none" xmlns="http://www.w3.org/2000/svg">
<path d="M6.1896 1.06542C8.04987 1.06542 9.68182 1.42902 11.0855 2.15621C12.506 2.88341 13.5968 3.92346 14.3578 5.27638C15.1358 6.61239 15.5247 8.16825 15.5247 9.94395C15.5247 11.7197 15.1358 13.2755 14.3578 14.6115C13.5968 15.9306 12.506 16.9538 11.0855 17.681C9.68182 18.4081 8.04987 18.7717 6.1896 18.7717H0V1.06542H6.1896ZM6.06277 15.753C7.92303 15.753 9.3605 15.2457 10.3752 14.231C11.3899 13.2163 11.8972 11.7873 11.8972 9.94395C11.8972 8.1006 11.3899 6.66312 10.3752 5.63152C9.3605 4.58301 7.92303 4.05875 6.06277 4.05875H3.55141V15.753H6.06277Z" fill="#242424"/>
<path d="M24.4235 19C23.0706 19 21.8529 18.7041 20.7706 18.1122C19.6883 17.5034 18.8342 16.6494 18.2085 15.5501C17.5997 14.4509 17.2953 13.1825 17.2953 11.745C17.2953 10.3075 17.6082 9.03919 18.2339 7.93994C18.8765 6.84069 19.7475 5.99512 20.8467 5.40322C21.9459 4.7944 23.172 4.49 24.5249 4.49C25.8779 4.49 27.104 4.7944 28.2032 5.40322C29.3024 5.99512 30.1649 6.84069 30.7907 7.93994C31.4333 9.03919 31.7546 10.3075 31.7546 11.745C31.7546 13.1825 31.4248 14.4509 30.7653 15.5501C30.1226 16.6494 29.2433 17.5034 28.1271 18.1122C27.0278 18.7041 25.7933 19 24.4235 19ZM24.4235 15.9052C25.0661 15.9052 25.6665 15.753 26.2246 15.4486C26.7995 15.1273 27.2562 14.6538 27.5944 14.0281C27.9326 13.4023 28.1017 12.6413 28.1017 11.745C28.1017 10.409 27.7466 9.38587 27.0363 8.67559C26.3429 7.9484 25.4889 7.5848 24.4742 7.5848C23.4595 7.5848 22.6055 7.9484 21.9121 8.67559C21.2357 9.38587 20.8974 10.409 20.8974 11.745C20.8974 13.081 21.2272 14.1126 21.8868 14.8398C22.5632 15.5501 23.4088 15.9052 24.4235 15.9052Z" fill="#242424"/>
<path d="M33.4465 11.745C33.4465 10.2906 33.7424 9.02227 34.3343 7.93994C34.9262 6.84069 35.7464 5.99512 36.795 5.40322C37.8435 4.7944 39.0442 4.49 40.3971 4.49C42.139 4.49 43.5765 4.9297 44.7095 5.80909C45.8595 6.67158 46.629 7.88921 47.0179 9.46197H43.1875C42.9846 8.85316 42.6379 8.37964 42.1474 8.04141C41.6739 7.68627 41.082 7.5087 40.3717 7.5087C39.357 7.5087 38.5538 7.88075 37.9619 8.62486C37.3699 9.35205 37.074 10.3921 37.074 11.745C37.074 13.081 37.3699 14.1211 37.9619 14.8652C38.5538 15.5924 39.357 15.956 40.3717 15.956C41.8092 15.956 42.7478 15.3133 43.1875 14.0281H47.0179C46.629 15.5501 45.8595 16.7593 44.7095 17.6556C43.5595 18.5519 42.1221 19 40.3971 19C39.0442 19 37.8435 18.7041 36.795 18.1122C35.7464 17.5034 34.9262 16.6578 34.3343 15.5755C33.7424 14.4762 33.4465 13.1994 33.4465 11.745Z" fill="#242424"/>
<path d="M48.7065 11.6943C48.7065 10.2737 48.9855 9.01382 49.5436 7.91457C50.1186 6.81533 50.8965 5.96975 51.8774 5.37785C52.8582 4.78595 53.949 4.49 55.1497 4.49C56.0629 4.49 56.9339 4.69294 57.7625 5.09881C58.5912 5.48777 59.2508 6.01203 59.7412 6.67158V0H63.3433V18.7717H59.7412V16.6916C59.3015 17.385 58.6842 17.9431 57.8894 18.3659C57.0945 18.7887 56.1729 19 55.1244 19C53.9406 19 52.8582 18.6956 51.8774 18.0868C50.8965 17.478 50.1186 16.624 49.5436 15.5247C48.9855 14.4086 48.7065 13.1318 48.7065 11.6943ZM59.7666 11.745C59.7666 10.8825 59.5974 10.1469 59.2592 9.53807C58.921 8.91235 58.4644 8.43883 57.8894 8.11751C57.3144 7.77928 56.6971 7.61017 56.0376 7.61017C55.378 7.61017 54.7692 7.77082 54.2111 8.09214C53.6531 8.41346 53.1964 8.88698 52.8413 9.51271C52.5031 10.1215 52.334 10.8487 52.334 11.6943C52.334 12.5399 52.5031 13.284 52.8413 13.9266C53.1964 14.5523 53.6531 15.0343 54.2111 15.3725C54.7861 15.7108 55.3949 15.8799 56.0376 15.8799C56.6971 15.8799 57.3144 15.7192 57.8894 15.3979C58.4644 15.0597 58.921 14.5862 59.2592 13.9773C59.5974 13.3516 59.7666 12.6075 59.7666 11.745Z" fill="#242424"/>
<path d="M73.0522 19C71.6993 19 70.4817 18.7041 69.3994 18.1122C68.317 17.5034 67.463 16.6494 66.8373 15.5501C66.2285 14.4509 65.9241 13.1825 65.9241 11.745C65.9241 10.3075 66.2369 9.03919 66.8626 7.93994C67.5053 6.84069 68.3762 5.99512 69.4755 5.40322C70.5747 4.7944 71.8008 4.49 73.1537 4.49C74.5066 4.49 75.7327 4.7944 76.832 5.40322C77.9312 5.99512 78.7937 6.84069 79.4194 7.93994C80.0621 9.03919 80.3834 10.3075 80.3834 11.745C80.3834 13.1825 80.0536 14.4509 79.394 15.5501C78.7514 16.6494 77.872 17.5034 76.7559 18.1122C75.6566 18.7041 74.4221 19 73.0522 19ZM73.0522 15.9052C73.6949 15.9052 74.2952 15.753 74.8533 15.4486C75.4283 15.1273 75.8849 14.6538 76.2231 14.0281C76.5614 13.4023 76.7305 12.6413 76.7305 11.745C76.7305 10.409 76.3753 9.38587 75.6651 8.67559C74.9717 7.9484 74.1177 7.5848 73.103 7.5848C72.0883 7.5848 71.2343 7.9484 70.5409 8.67559C69.8644 9.38587 69.5262 10.409 69.5262 11.745C69.5262 13.081 69.856 14.1126 70.5155 14.8398C71.192 15.5501 72.0376 15.9052 73.0522 15.9052Z" fill="#242424"/>
<path d="M82.0752 11.745C82.0752 10.2906 82.3712 9.02227 82.9631 7.93994C83.555 6.84069 84.3752 5.99512 85.4237 5.40322C86.4722 4.7944 87.6729 4.49 89.0259 4.49C90.7677 4.49 92.2052 4.9297 93.3383 5.80909C94.4883 6.67158 95.2578 7.88921 95.6467 9.46197H91.8163C91.6133 8.85316 91.2666 8.37964 90.7762 8.04141C90.3027 7.68627 89.7108 7.5087 89.0005 7.5087C87.9858 7.5087 87.1825 7.88075 86.5906 8.62486C85.9987 9.35205 85.7028 10.3921 85.7028 11.745C85.7028 13.081 85.9987 14.1211 86.5906 14.8652C87.1825 15.5924 87.9858 15.956 89.0005 15.956C90.438 15.956 91.3766 15.3133 91.8163 14.0281H95.6467C95.2578 15.5501 94.4883 16.7593 93.3383 17.6556C92.1883 18.5519 90.7508 19 89.0259 19C87.6729 19 86.4722 18.7041 85.4237 18.1122C84.3752 17.5034 83.555 16.6578 82.9631 15.5755C82.3712 14.4762 82.0752 13.1994 82.0752 11.745Z" fill="#242424"/>
</svg>
